<svg width="14" height="12" viewBox="0 0 14 12" fill="none" xmlns="http://www.w3.org/2000/svg">
<path d="M7.00293 11.4956L7.00293 11.4956L7.00001 11.4972L6.99707 11.4956C6.87585 11.4314 5.22268 10.5305 3.60738 9.11588C1.96579 7.67825 0.500138 5.82871 0.5 3.87528C0.501085 2.98043 0.857039 2.12255 1.48979 1.48979C2.12255 0.857039 2.98043 0.501085 3.87528 0.5C5.01967 0.500078 5.99678 0.989726 6.60016 1.79334L7 2.32587L7.39984 1.79334C8.00322 0.989726 8.98034 0.500078 10.1247 0.5C11.0196 0.501085 11.8775 0.857039 12.5102 1.48979C13.143 2.12262 13.499 2.98062 13.5 3.87556C13.4997 5.82889 12.0341 7.67832 10.3926 9.11588C8.77732 10.5305 7.12415 11.4314 7.00293 11.4956Z" fill="#573824" stroke="black"/>
</svg>
